<svg width="165" height="60" viewBox="0 0 165 60" fill="none" xmlns="http://www.w3.org/2000/svg">
<path d="M59.6727 9.36552L53.2619 46.3201C53.2619 46.3201 11.3692 38.191 0 60.0001C11.2276 35.4983 50.7019 40.2292 50.7019 40.2292L54.9994 11.411H51.1122V8.90916C55.4097 8.27643 59.6727 9.36552 59.6727 9.36552Z" fill="#FF6C6C"/>
<path d="M23.4937 21.8818L23.2631 33.7472C21.5819 34.1854 19.8716 34.6818 18.1559 35.2491L18.4246 21.8054L23.4937 21.8818Z" fill="#FF6C6C"/>
<path d="M32.6805 14.5054L32.341 31.8782C30.7233 32.1327 29.013 32.44 27.2573 32.8127L27.6205 14.4291L32.6805 14.5054Z" fill="#FF6C6C"/>
<path d="M41.8856 6.3818L41.3954 30.8509C39.972 30.9473 38.2508 31.1018 36.3118 31.3309L36.8056 6.30725L41.8856 6.3818Z" fill="#FF6C6C"/>
<path d="M49.7869 0.0600586L47.6336 37.6782C47.6336 37.6782 8.78923 34.6819 0 58.0546C8.35167 32.0364 44.4055 32.0364 44.4055 32.0364L45.4821 3.81824C45.4821 3.81824 11.8412 4.76188 1.51238 23.2728C1.45612 23.3997 1.41704 23.5337 1.39618 23.671C1.42672 23.3144 1.49987 22.9628 1.61405 22.6237C12.3804 0.0600572 49.7869 0.0600586 49.7869 0.0600586Z" fill="#1A4E87"/>
<path d="M69.199 9.98175V3.40902L69.3443 3.60902L67.1438 9.98175H65.8166V0.334473H67.3163V6.96175L67.1638 6.76175L69.3842 0.334473H70.6969V9.98175H69.199Z" fill="#1A4E87"/>
<path d="M71.877 0.334473H73.5201V9.98902H71.877V0.334473ZM72.6595 4.45811H75.8913V5.99993H72.6595V4.45811ZM74.8201 0.334473H76.465V9.98902H74.8201V0.334473Z" fill="#1A4E87"/>
<path d="M78.9996 8.57818C78.4927 8.34255 78.0714 7.95498 77.7941 7.46909C77.5054 6.93246 77.3627 6.32928 77.3801 5.72V4.26545C77.3624 3.65615 77.5052 3.05291 77.7941 2.51636C78.071 2.0301 78.4924 1.6424 78.9996 1.40727C79.6037 1.15522 80.2516 1.02545 80.906 1.02545C81.5604 1.02545 82.2083 1.15522 82.8123 1.40727C83.3196 1.6424 83.741 2.0301 84.0179 2.51636C84.3082 3.05242 84.4517 3.65589 84.4337 4.26545V5.72C84.4517 6.32956 84.3082 6.93303 84.0179 7.46909C83.7405 7.95498 83.3193 8.34255 82.8123 8.57818C82.2083 8.83023 81.5604 8.96 80.906 8.96C80.2516 8.96 79.6037 8.83023 78.9996 8.57818ZM82.2985 6.90909C82.464 6.76189 82.594 6.57911 82.6789 6.37444C82.7638 6.16978 82.8013 5.94853 82.7887 5.72727V4.27273C82.8015 4.05145 82.764 3.83016 82.6791 3.62548C82.5942 3.42079 82.4641 3.23803 82.2985 3.09091C81.9717 2.81091 81.5069 2.67273 80.906 2.67273C80.305 2.67273 79.8402 2.81091 79.5134 3.09091C79.3479 3.23803 79.2178 3.42079 79.1329 3.62548C79.048 3.83016 79.0105 4.05145 79.0232 4.27273V5.72727C79.0117 5.94925 79.0507 6.17095 79.1372 6.37566C79.2237 6.58037 79.3554 6.76276 79.5225 6.90909C79.8493 7.18788 80.3135 7.32727 80.9151 7.32727C81.5166 7.32727 81.9778 7.18788 82.2985 6.90909ZM80.0835 0H81.7284V9.98909H80.0835V0Z" fill="#1A4E87"/>
<path d="M86.2202 9.81823C85.8649 9.65311 85.5694 9.38191 85.3741 9.04187C85.1706 8.66696 85.0697 8.24479 85.0818 7.81823V2.5055C85.0691 2.07598 85.1699 1.65071 85.3741 1.27278C85.5683 0.931899 85.8642 0.660424 86.2202 0.496414C86.6414 0.321168 87.0931 0.230957 87.5492 0.230957C88.0053 0.230957 88.457 0.321168 88.8782 0.496414C89.2334 0.661044 89.5284 0.93241 89.7224 1.27278C89.9257 1.6491 90.0265 2.07236 90.0148 2.50005V7.81823C90.0268 8.24479 89.926 8.66696 89.7224 9.04187C89.5274 9.38141 89.2326 9.6525 88.8782 9.81823C88.4576 9.99585 88.0057 10.0874 87.5492 10.0874C87.0927 10.0874 86.6408 9.99585 86.2202 9.81823ZM87.9831 8.34187C88.1023 8.27804 88.1982 8.17813 88.2573 8.05641C88.3233 7.9155 88.3556 7.76111 88.3517 7.60551V2.7055C88.355 2.55171 88.3227 2.39922 88.2573 2.26005C88.1977 2.13869 88.1019 2.03892 87.9831 1.9746C87.8489 1.90633 87.6997 1.87259 87.5492 1.87641C87.3992 1.87204 87.2505 1.90582 87.1171 1.9746C87.0002 2.04017 86.9058 2.1397 86.8466 2.26005C86.7817 2.39937 86.75 2.55185 86.754 2.7055V7.6146C86.7495 7.77006 86.7812 7.92444 86.8466 8.06551C86.9053 8.18626 86.9997 8.28595 87.1171 8.35096C87.2501 8.42113 87.399 8.45558 87.5492 8.45096C87.7008 8.45237 87.8502 8.41481 87.9831 8.34187Z" fill="#1A4E87"/>
<path d="M91.0622 0.334537H92.7053V9.98908H91.0622V0.334537ZM91.832 4.66363H93.535C93.6565 4.66659 93.7763 4.63439 93.8799 4.5709C93.9805 4.50455 94.0589 4.40956 94.1051 4.29817C94.1611 4.16413 94.1883 4.0198 94.185 3.87454V2.73817C94.1887 2.58673 94.1628 2.43601 94.1087 2.29454C94.0647 2.1795 93.9868 2.08058 93.8854 2.0109C93.7807 1.94471 93.6587 1.91117 93.535 1.91454H91.832V0.334537H93.5804C94.0034 0.32362 94.4233 0.410082 94.8077 0.587264C95.1376 0.745926 95.4089 1.00493 95.583 1.32726C95.7681 1.68975 95.8592 2.09301 95.848 2.49999V4.12545C95.86 4.52422 95.7674 4.91917 95.5793 5.2709C95.402 5.58891 95.1296 5.84326 94.8005 5.99817C94.4182 6.17388 94.0008 6.25911 93.5804 6.24726H91.832V4.66363Z" fill="#1A4E87"/>
<path d="M101.874 0.334473H103.412V9.98902H101.947V3.24902L102.047 3.67447L100.649 8.28175H99.8261L98.4281 3.8072L98.5606 3.24902V9.98902H97.0609V0.334473H98.6405L100.236 5.57993L101.874 0.334473Z" fill="#1A4E87"/>
<path d="M106.297 0.334473H107.45L109.75 9.98902H108.116L106.871 3.66175L105.623 9.98902H103.989L106.297 0.334473ZM105.562 6.9472H108.187V8.4872H105.562V6.9472Z" fill="#1A4E87"/>
<path d="M110.467 0.334473H112.101V9.98902H110.467V0.334473ZM111.685 8.40902H114.382V9.98902H111.685V8.40902ZM113.436 0.334473H115.081V9.98902H113.436V0.334473ZM114.344 8.40902H115.854V12.1817H114.345L114.344 8.40902Z" fill="#1A4E87"/>
<path d="M120.119 9.98175V3.40902L120.264 3.60902L118.064 9.98175H116.742V0.334473H118.24V6.96175L118.087 6.76175L120.308 0.334473H121.62V9.98175H120.119Z" fill="#1A4E87"/>
<path d="M123.933 9.81816C123.582 9.65119 123.289 9.38022 123.096 9.04179C122.89 8.66759 122.787 8.24538 122.797 7.81816V2.50543C122.786 2.07525 122.89 1.64994 123.096 1.2727C123.29 0.932336 123.585 0.66097 123.941 0.496339C124.362 0.32114 124.814 0.230957 125.27 0.230957C125.727 0.230957 126.179 0.32114 126.6 0.496339C126.953 0.662213 127.245 0.933457 127.437 1.2727C127.641 1.64902 127.741 2.07229 127.73 2.49998V7.81816C127.742 8.24472 127.641 8.66689 127.437 9.04179C127.242 9.38133 126.948 9.65242 126.593 9.81816C126.172 9.99573 125.72 10.0872 125.263 10.0872C124.806 10.0872 124.354 9.99573 123.933 9.81816ZM125.698 8.34179C125.817 8.27796 125.913 8.17805 125.972 8.05634C126.038 7.91527 126.069 7.76089 126.065 7.60543V2.70543C126.069 2.55177 126.037 2.3993 125.972 2.25998C125.913 2.13862 125.817 2.03885 125.698 1.97452C125.563 1.90596 125.413 1.87222 125.262 1.87634C125.113 1.8722 124.965 1.90597 124.832 1.97452C124.714 2.03943 124.619 2.13909 124.56 2.25998C124.495 2.3993 124.463 2.55177 124.467 2.70543V7.61452C124.463 7.76998 124.494 7.92436 124.56 8.06543C124.619 8.18666 124.714 8.28646 124.832 8.35089C124.964 8.42091 125.113 8.45536 125.262 8.45088C125.414 8.45252 125.565 8.41496 125.698 8.34179Z" fill="#1A4E87"/>
<path d="M128.777 0.334473H130.421V9.98902H128.777V0.334473ZM129.56 4.45811H132.788V5.99993H129.56V4.45811ZM131.72 0.334473H133.355V9.98902H131.72V0.334473Z" fill="#1A4E87"/>
<path d="M134.544 0.334473H136.188V9.98902H134.544V0.334473ZM135.326 4.45811H138.554V5.99993H135.326V4.45811ZM137.488 0.334473H139.132V9.98902H137.488V0.334473Z" fill="#1A4E87"/>
<path d="M142.017 0.334473H143.17L145.47 9.98902H143.836L142.589 3.66175L141.343 9.98902H139.709L142.017 0.334473ZM141.28 6.9472H143.905V8.4872H141.28V6.9472Z" fill="#1A4E87"/>
<path d="M147.147 5.97089C146.791 5.8007 146.497 5.52195 146.309 5.17453C146.107 4.78783 146.008 4.35597 146.02 3.91999V2.51999C146.008 2.10606 146.108 1.69661 146.309 1.33453C146.503 1.00294 146.797 0.740447 147.147 0.583621C147.563 0.404365 148.013 0.317522 148.465 0.329076H149.858V1.90908H148.705C148.511 1.90373 148.319 1.94817 148.148 2.03817C147.99 2.12327 147.863 2.25549 147.785 2.41635C147.698 2.60233 147.656 2.80583 147.661 3.01089V3.55635C147.656 3.76142 147.698 3.96491 147.785 4.15089C147.863 4.31175 147.99 4.44397 148.148 4.52908C148.319 4.61907 148.511 4.66351 148.705 4.65817H149.858V6.23817H148.465C148.011 6.25215 147.56 6.16067 147.147 5.97089ZM147.405 5.63635L148.956 5.9418L147.835 9.98544H146.02L147.405 5.63635ZM149.155 0.325439H150.806V9.98908H149.155V0.325439Z" fill="#1A4E87"/>
<path d="M66.8841 23.8491C66.5402 23.6573 66.2638 23.364 66.0925 23.0091C65.8986 22.5942 65.8041 22.1398 65.8165 21.6819V16.7419C65.8039 16.2839 65.8984 15.8294 66.0925 15.4146C66.2638 15.0597 66.5402 14.7664 66.8841 14.5746C67.2728 14.3844 67.6997 14.2855 68.1323 14.2855C68.5649 14.2855 68.9918 14.3844 69.3805 14.5746C69.7265 14.7652 70.0036 15.0605 70.1721 15.4182C70.3638 15.835 70.457 16.2904 70.4444 16.7491V17.5255H68.7813V16.7491C68.784 16.604 68.7594 16.4597 68.7087 16.3237C68.6648 16.2105 68.5867 16.1139 68.4854 16.0473C68.379 15.9822 68.256 15.9493 68.1314 15.9528C68.0098 15.9496 67.89 15.9818 67.7864 16.0455C67.6864 16.1107 67.609 16.2053 67.5649 16.3164C67.5114 16.4517 67.4855 16.5964 67.4886 16.7419V21.6819C67.4851 21.8262 67.5111 21.9697 67.5649 22.1037C67.6096 22.2134 67.687 22.3067 67.7864 22.3709C67.8898 22.4353 68.0097 22.4681 68.1314 22.4655C68.259 22.4701 68.3852 22.4372 68.4945 22.3709C68.5939 22.3071 68.6707 22.2136 68.7142 22.1037C68.7654 21.9666 68.7901 21.8209 68.7868 21.6746V20.8982H70.4444V21.6746C70.457 22.1333 70.3638 22.5887 70.1721 23.0055C70.0031 23.3629 69.7262 23.658 69.3805 23.8491C68.9918 24.0393 68.5649 24.1382 68.1323 24.1382C67.6997 24.1382 67.2728 24.0393 66.8841 23.8491Z" fill="#1A4E87"/>
<path d="M74.7402 24.0309V17.4546L74.8873 17.6546L72.685 24.0182H71.3524V14.3818H72.8502V21.0073L72.6977 20.8073L74.9182 14.3818H76.2308V24.0182L74.7402 24.0309Z" fill="#1A4E87"/>
<path d="M78.4858 23.8491C78.142 23.6573 77.8656 23.364 77.6943 23.0091C77.5004 22.5942 77.4059 22.1398 77.4183 21.6819V16.7419C77.4057 16.2839 77.5002 15.8294 77.6943 15.4146C77.8656 15.0597 78.142 14.7664 78.4858 14.5746C78.8745 14.3844 79.3014 14.2855 79.7341 14.2855C80.1667 14.2855 80.5936 14.3844 80.9823 14.5746C81.3283 14.7652 81.6054 15.0605 81.7739 15.4182C81.9656 15.835 82.0588 16.2904 82.0462 16.7491V17.5255H80.3831V16.7491C80.3861 16.6038 80.3608 16.4593 80.3087 16.3237C80.266 16.2104 80.1884 16.1136 80.0872 16.0473C79.9808 15.9822 79.8578 15.9493 79.7332 15.9528C79.6116 15.9496 79.4918 15.9818 79.3882 16.0455C79.2855 16.1096 79.2054 16.2043 79.1594 16.3164C79.1059 16.4517 79.08 16.5964 79.0832 16.7419V21.6819C79.0796 21.8262 79.1056 21.9697 79.1594 22.1037C79.2042 22.2134 79.2815 22.3067 79.3809 22.3709C79.4843 22.4353 79.6042 22.4681 79.7259 22.4655C79.8535 22.4701 79.9798 22.4372 80.089 22.3709C80.1879 22.307 80.2642 22.2135 80.3069 22.1037C80.3597 21.9669 80.385 21.8211 80.3813 21.6746V20.8982H82.0444V21.6746C82.057 22.1333 81.9638 22.5887 81.7721 23.0055C81.6031 23.3629 81.3261 23.658 80.9805 23.8491C80.5918 24.0393 80.1649 24.1382 79.7322 24.1382C79.2996 24.1382 78.8727 24.0393 78.484 23.8491H78.4858Z" fill="#1A4E87"/>
<path d="M82.4273 14.3855H87.2568V15.9655H82.4273V14.3855ZM84.0178 15.1946H85.6627V24.0382H84.0178V15.1946Z" fill="#1A4E87"/>
<path d="M88.0394 14.3855H89.6734V24.0382H88.0394V14.3855ZM88.7656 14.3855H92.3224V16H88.7693L88.7656 14.3855ZM88.7656 18.4419H91.9865V20.0419H88.7693L88.7656 18.4419ZM88.7656 22.431H92.3224V24.0382H88.7693L88.7656 22.431Z" fill="#1A4E87"/>
<path d="M97.9833 14.3855H99.5211V24.0382H98.056V17.3L98.1558 17.7237L96.7578 22.3328H95.9354L94.5355 17.8564L94.6681 17.3V24.0382H93.1702V14.3855H94.748L96.3457 19.6291L97.9833 14.3855Z" fill="#1A4E87"/>
<path d="M102.399 14.3855H103.552L105.852 24.0382H104.218L102.971 17.711L101.725 24.0382H100.091L102.399 14.3855ZM101.673 20.9982H104.298V22.5455H101.673V20.9982Z" fill="#1A4E87"/>
<path d="M108.809 14.3855H110.54L111.811 21.5691L110.763 22.66L108.809 14.3855ZM112.428 22.4255C112.368 22.76 112.231 23.0758 112.027 23.3473C111.83 23.6042 111.572 23.8064 111.275 23.9346C110.947 24.0754 110.592 24.1448 110.235 24.1382H109.557V22.4855H110.235C110.402 22.488 110.566 22.4426 110.709 22.3546C110.853 22.2642 110.973 22.1393 111.057 21.991C111.152 21.8121 111.214 21.6174 111.239 21.4164L112.393 14.3928H114.051L112.428 22.4255Z" fill="#1A4E87"/>
<path d="M114.643 14.3855H116.277V24.0382H114.643V14.3855ZM115.505 14.3855H118.581V15.9582H115.505V14.3855ZM117.586 14.3855H119.231V24.0382H117.586V14.3855Z" fill="#1A4E87"/>
<path d="M120.411 14.3855H122.045V24.0382H120.411V14.3855ZM121.179 18.7127H122.884C123.005 18.716 123.124 18.6837 123.227 18.62C123.328 18.5541 123.407 18.4598 123.454 18.3491C123.509 18.2142 123.536 18.0693 123.532 17.9236V16.7891C123.536 16.6371 123.51 16.4858 123.456 16.3436C123.413 16.229 123.335 16.1305 123.234 16.0618C123.13 15.9951 123.008 15.9615 122.884 15.9655H121.179V14.3855H122.929C123.352 14.3737 123.772 14.4602 124.157 14.6382C124.487 14.7963 124.758 15.0555 124.932 15.3782C125.117 15.74 125.208 16.1427 125.197 16.5491V18.1855C125.209 18.5842 125.116 18.9792 124.928 19.3309C124.749 19.6477 124.477 19.9017 124.149 20.0582C123.767 20.233 123.35 20.3182 122.929 20.3073H121.179V18.7127Z" fill="#1A4E87"/>
<path d="M127.65 14.3855H128.803L131.103 24.0382H129.469L128.223 17.711L126.976 24.0382H125.342L127.65 14.3855ZM126.909 20.9982H129.534V22.5455H126.909V20.9982Z" fill="#1A4E87"/>
<path d="M131.82 14.3854H133.471V24.0381H131.82V14.3854ZM132.761 22.4909H134.213C134.386 22.5013 134.557 22.4431 134.687 22.329C134.745 22.2692 134.79 22.1978 134.819 22.1196C134.848 22.0413 134.861 21.9579 134.856 21.8745V20.58C134.86 20.4397 134.834 20.3003 134.78 20.1709C134.733 20.0623 134.653 19.9717 134.551 19.9127C134.44 19.8501 134.315 19.8187 134.188 19.8218H132.768V18.2963H134.148C134.232 18.3014 134.317 18.2877 134.395 18.2562C134.474 18.2248 134.544 18.1764 134.602 18.1145C134.718 17.9631 134.776 17.7744 134.763 17.5836V16.5454C134.768 16.4627 134.756 16.3798 134.729 16.3018C134.701 16.2237 134.658 16.152 134.602 16.0909C134.542 16.0352 134.471 15.9922 134.394 15.9644C134.317 15.9366 134.235 15.9246 134.153 15.929H132.768V14.3854H134.32C134.705 14.3744 135.086 14.4541 135.433 14.6181C135.734 14.7651 135.981 15.003 136.14 15.2981C136.309 15.6316 136.392 16.0023 136.381 16.3763V17.4127C136.387 17.6796 136.33 17.9442 136.216 18.1854C136.106 18.406 135.94 18.594 135.735 18.7309C135.506 18.8819 135.247 18.9806 134.976 19.02C135.269 19.0537 135.551 19.1512 135.802 19.3054C136.025 19.4466 136.205 19.645 136.325 19.88C136.451 20.1371 136.513 20.4209 136.506 20.7072V22.0218C136.518 22.3997 136.435 22.7745 136.267 23.1127C136.113 23.4102 135.868 23.6509 135.568 23.8C135.224 23.966 134.845 24.047 134.464 24.0363H132.766L132.761 22.4909Z" fill="#1A4E87"/>
<path d="M137.316 22.4782C137.429 22.483 137.542 22.4579 137.643 22.4055C137.731 22.3553 137.799 22.2763 137.835 22.1819C137.881 22.0625 137.903 21.9352 137.899 21.8073V14.3855H139.544V21.8873C139.558 22.3012 139.48 22.7131 139.315 23.0928C139.17 23.4016 138.924 23.6517 138.618 23.8019C138.249 23.9718 137.846 24.0527 137.441 24.0382H137.316V22.4782ZM138.999 14.3855H141.499V15.9655H138.999V14.3855ZM140.597 14.3855H142.242V24.0382H140.597V14.3855Z" fill="#1A4E87"/>
<path d="M143.431 14.3855H145.065V24.0382H143.431V14.3855ZM144.157 14.3855H147.71V16H144.157V14.3855ZM144.157 18.4419H147.38V20.0419H144.157V18.4419ZM144.157 22.431H147.71V24.0382H144.157V22.431Z" fill="#1A4E87"/>
<path d="M148.553 14.3855H150.187V24.0382H148.553V14.3855ZM149.335 18.5073H152.563V20.0546H149.335V18.5073ZM151.496 14.3855H153.139V24.0382H151.496V14.3855Z" fill="#1A4E87"/>
<path d="M157.701 24.0309V17.4546L157.847 17.6546L155.646 24.0182H154.324V14.3818H155.824V21.0073L155.671 20.8073L157.892 14.3818H159.205V24.0182L157.701 24.0309Z" fill="#1A4E87"/>
<path d="M161.34 20.0218C160.984 19.8505 160.691 19.572 160.501 19.2254C160.3 18.838 160.201 18.4056 160.212 17.9691V16.5691C160.2 16.1555 160.298 15.7462 160.498 15.3836C160.692 15.0522 160.985 14.7902 161.336 14.6345C161.752 14.4536 162.203 14.3661 162.656 14.3782H164.049V15.9582H162.894C162.701 15.953 162.51 15.9974 162.339 16.0873C162.181 16.1721 162.054 16.3044 161.975 16.4654C161.89 16.6517 161.848 16.8551 161.854 17.06V17.6054C161.848 17.8104 161.89 18.0139 161.975 18.2C162.053 18.3614 162.18 18.4939 162.339 18.5782C162.509 18.6688 162.701 18.7133 162.894 18.7073H164.049V20.2891H162.656C162.203 20.3026 161.752 20.2112 161.34 20.0218ZM161.6 19.6891L163.15 19.9945L162.03 24.0382H160.214L161.6 19.6891ZM163.35 14.3782H165V24.0382H163.35V14.3782Z" fill="#1A4E87"/>
<path d="M66.955 37.9182C66.6001 37.7525 66.3047 37.4815 66.1089 37.1419C65.9052 36.7664 65.8044 36.3436 65.8166 35.9164V30.6055C65.8046 30.1778 65.9054 29.7545 66.1089 29.3782C66.303 29.0368 66.5988 28.7647 66.955 28.6001C67.3762 28.4248 67.8279 28.3346 68.284 28.3346C68.7401 28.3346 69.1918 28.4248 69.613 28.6001C69.9683 28.7654 70.2633 29.0373 70.4572 29.3782C70.6616 29.7542 70.7625 30.1777 70.7496 30.6055V35.9164C70.7627 36.3437 70.6618 36.7667 70.4572 37.1419C70.2617 37.481 69.967 37.7519 69.613 37.9182C69.1924 38.0959 68.7405 38.1874 68.284 38.1874C67.8275 38.1874 67.3756 38.0959 66.955 37.9182ZM68.7179 36.4419C68.8368 36.3771 68.9331 36.2775 68.9939 36.1564C69.0592 36.0147 69.0909 35.8597 69.0865 35.7037V30.8055C69.0895 30.6529 69.0572 30.5017 68.9921 30.3637C68.9318 30.2422 68.8354 30.1425 68.7161 30.0782C68.5823 30.0085 68.433 29.974 68.2822 29.9782C68.1319 29.9736 67.9831 30.0081 67.8501 30.0782C67.7327 30.1432 67.6383 30.2429 67.5795 30.3637C67.5145 30.503 67.4828 30.6555 67.487 30.8091V35.7073C67.4825 35.8634 67.5142 36.0183 67.5795 36.1601C67.6388 36.2804 67.7331 36.3799 67.8501 36.4455C67.9835 36.5143 68.1322 36.5481 68.2822 36.5437C68.4336 36.5467 68.5834 36.5117 68.7179 36.4419Z" fill="#1A4E87"/>
<path d="M71.7971 28.4346H73.442V38.0873H71.7971V28.4346ZM72.6395 36.5073H74.1246C74.2775 36.5116 74.4283 36.4712 74.5586 36.3909C74.6837 36.3102 74.7818 36.1936 74.84 36.0564C74.9106 35.8905 74.9446 35.7112 74.9398 35.5309V34.7618C74.9443 34.5754 74.9116 34.39 74.8436 34.2164C74.7869 34.0754 74.6887 33.9549 74.5622 33.8709C74.4307 33.7904 74.2788 33.7493 74.1246 33.7528H72.6395V32.1818H74.4224C74.8273 32.1701 75.2286 32.2601 75.5898 32.4437C75.908 32.6152 76.166 32.8805 76.3287 33.2037C76.5067 33.5761 76.5938 33.9855 76.5829 34.3982V35.9255C76.594 36.3312 76.5067 36.7336 76.3287 37.0982C76.1644 37.4174 75.9049 37.6773 75.5862 37.8418C75.2244 38.0195 74.8251 38.1068 74.4224 38.0964H72.6395V36.5073ZM72.7847 28.4346H76.1526V30.0146H72.7847V28.4346Z" fill="#1A4E87"/>
<path d="M77.5978 28.4345H79.2427V38.0873H77.5978V28.4345ZM78.3676 32.7636H80.067C80.1885 32.7666 80.3083 32.7344 80.412 32.6709C80.5125 32.6046 80.5909 32.5096 80.6371 32.3982C80.6929 32.2634 80.7201 32.1186 80.717 31.9727V30.8382C80.7207 30.6861 80.6948 30.5348 80.6407 30.3927C80.5972 30.2784 80.5199 30.1801 80.4192 30.1109C80.3138 30.045 80.1913 30.0115 80.067 30.0145H78.364V28.4345H80.1142C80.5367 28.4227 80.9562 28.5092 81.3397 28.6873C81.6699 28.8454 81.9414 29.1045 82.115 29.4273C82.3007 29.7889 82.3919 30.1917 82.38 30.5982V32.2345C82.392 32.6333 82.2994 33.0283 82.1113 33.38C81.934 33.698 81.6616 33.9524 81.3325 34.1073C80.9506 34.282 80.5339 34.3672 80.1142 34.3564H78.364L78.3676 32.7636Z" fill="#1A4E87"/>
<path d="M84.8366 28.4346H85.9913L88.2917 38.0873H86.6577L85.4122 31.76L84.1667 38.0873H82.5327L84.8366 28.4346ZM84.1104 35.0473H86.7357V36.5873H84.1013L84.1104 35.0473Z" fill="#1A4E87"/>
<path d="M90.0529 37.9146C89.6856 37.7489 89.3786 37.4732 89.1742 37.1255C88.9638 36.7437 88.8597 36.3123 88.8728 35.8764V35.4128H90.5232V35.8182C90.517 35.9281 90.5353 36.0379 90.5767 36.1398C90.6182 36.2417 90.6817 36.3331 90.7628 36.4073C90.9548 36.5574 91.1951 36.6318 91.4382 36.6164C91.5539 36.623 91.6696 36.6054 91.7781 36.5647C91.8866 36.524 91.9854 36.4611 92.0682 36.38C92.2265 36.2001 92.3074 35.9649 92.2934 35.7255V34.6909C92.3079 34.4686 92.2378 34.2491 92.0973 34.0764C92.0272 34.0035 91.9423 33.9465 91.8483 33.9091C91.7544 33.8718 91.6535 33.8551 91.5526 33.86H90.3598V32.28H91.5526C91.6321 32.2847 91.7118 32.2731 91.7867 32.2459C91.8616 32.2187 91.9302 32.1765 91.9883 32.1218C92.0983 31.9956 92.1538 31.8308 92.1427 31.6637V30.6346C92.1495 30.5379 92.137 30.4407 92.1058 30.3489C92.0746 30.2571 92.0254 30.1725 91.9611 30.1C91.8916 30.0352 91.8094 29.9855 91.7197 29.9542C91.63 29.9229 91.5347 29.9106 91.44 29.9182C91.3396 29.9118 91.2388 29.9255 91.1437 29.9586C91.0486 29.9917 90.9611 30.0435 90.8863 30.1109C90.8183 30.1837 90.766 30.2696 90.7326 30.3635C90.6992 30.4573 90.6854 30.557 90.692 30.6564V31.1273H89.0416V30.6637C89.029 30.228 89.1291 29.7964 89.3321 29.4109C89.5255 29.0654 89.8211 28.7885 90.1782 28.6182C90.5944 28.4262 91.0492 28.3329 91.5072 28.3455C91.9343 28.3331 92.3579 28.4267 92.74 28.6182C93.0763 28.7953 93.3496 29.0722 93.5225 29.4109C93.7135 29.8002 93.807 30.2301 93.7948 30.6637V31.6855C93.7904 31.9357 93.7217 32.1806 93.5951 32.3964C93.4499 32.6504 93.2591 32.8754 93.0323 33.06C93.3216 33.1865 93.5605 33.406 93.7113 33.6837C93.8787 33.9957 93.9619 34.346 93.9528 34.7V35.7346C93.9658 36.1957 93.8648 36.6529 93.6587 37.0655C93.4675 37.4297 93.1672 37.7248 92.7999 37.9091C92.3785 38.1121 91.9147 38.2112 91.4473 38.1982C90.9672 38.2089 90.4908 38.112 90.0529 37.9146Z" fill="#1A4E87"/>
<path d="M95.8989 37.9182C95.544 37.7525 95.2486 37.4815 95.0528 37.1419C94.8491 36.7664 94.7483 36.3436 94.7605 35.9164V30.6055C94.7485 30.1778 94.8493 29.7545 95.0528 29.3782C95.2469 29.0368 95.5427 28.7647 95.8989 28.6001C96.3201 28.4248 96.7718 28.3346 97.2279 28.3346C97.684 28.3346 98.1357 28.4248 98.5569 28.6001C98.9122 28.7654 99.2072 29.0373 99.4011 29.3782C99.6047 29.7545 99.7055 30.1778 99.6934 30.6055V35.9164C99.7057 36.3436 99.6048 36.7664 99.4011 37.1419C99.2055 37.481 98.9109 37.7519 98.5569 37.9182C98.1363 38.0959 97.6844 38.1874 97.2279 38.1874C96.7714 38.1874 96.3195 38.0959 95.8989 37.9182ZM97.6618 36.4419C97.7807 36.3771 97.877 36.2775 97.9378 36.1564C98.0023 36.0144 98.034 35.8597 98.0304 35.7037V30.8055C98.0337 30.6519 98.002 30.4996 97.9378 30.3601C97.8775 30.2386 97.7811 30.1388 97.6618 30.0746C97.528 30.0048 97.3787 29.9704 97.2279 29.9746C97.0776 29.97 96.9288 30.0044 96.7958 30.0746C96.6784 30.1396 96.584 30.2393 96.5253 30.3601C96.4603 30.4993 96.4285 30.6518 96.4327 30.8055V35.7037C96.4282 35.8597 96.4599 36.0147 96.5253 36.1564C96.5845 36.2768 96.6789 36.3763 96.7958 36.4419C96.9292 36.5106 97.0779 36.5444 97.2279 36.5401C97.3784 36.5439 97.5275 36.5101 97.6618 36.4419Z" fill="#1A4E87"/>
<path d="M100.741 28.4346H102.399V38.0873H100.748L100.741 28.4346ZM101.682 36.5455H103.134C103.308 36.5567 103.479 36.4986 103.61 36.3837C103.668 36.3238 103.713 36.2524 103.742 36.1742C103.771 36.0959 103.784 36.0125 103.779 35.9291V34.6346C103.782 34.4943 103.756 34.3549 103.702 34.2255C103.655 34.1173 103.575 34.0269 103.474 33.9673C103.363 33.9048 103.238 33.8734 103.111 33.8764H101.691V32.3455H103.071C103.155 32.3505 103.239 32.3368 103.318 32.3054C103.396 32.274 103.467 32.2256 103.524 32.1637C103.642 32.0121 103.7 31.8225 103.688 31.6309V30.5964C103.693 30.5135 103.681 30.4304 103.653 30.3523C103.625 30.2741 103.581 30.2025 103.524 30.1418C103.465 30.0857 103.395 30.0422 103.318 30.014C103.241 29.9859 103.159 29.9737 103.078 29.9782H101.691V28.4382H103.243C103.627 28.428 104.008 28.5077 104.356 28.6709C104.657 28.8173 104.904 29.0553 105.062 29.3509C105.232 29.6842 105.316 30.055 105.306 30.4291V31.4546C105.311 31.7217 105.254 31.9863 105.139 32.2273C105.027 32.4474 104.862 32.6353 104.657 32.7728C104.429 32.924 104.17 33.0222 103.898 33.06C104.191 33.0944 104.473 33.1918 104.725 33.3455C104.947 33.4871 105.127 33.6854 105.247 33.92C105.373 34.1772 105.436 34.4609 105.429 34.7473V36.0618C105.44 36.4397 105.358 36.8144 105.189 37.1528C105.034 37.4496 104.79 37.69 104.49 37.84C104.146 38.0045 103.768 38.0849 103.386 38.0746H101.689L101.682 36.5455Z" fill="#1A4E87"/>
<path d="M108.072 28.4346H109.227L111.528 38.0873H109.894L108.646 31.76L107.401 38.0873H105.767L108.072 28.4346ZM107.346 35.0473H109.972V36.5873H107.337L107.346 35.0473Z" fill="#1A4E87"/>
<path d="M112.243 28.4346H113.888V38.0873H112.243V28.4346ZM113.026 32.5582H116.254V34.1037H113.026V32.5582ZM115.186 28.4346H116.831V38.0873H115.186V28.4346Z" fill="#1A4E87"/>
<path d="M121.392 38.0818V31.5091L121.537 31.7073L119.336 38.0818H118.013V28.4346H119.511V35.06L119.358 34.8618L121.579 28.4346H122.891V38.0818H121.392Z" fill="#1A4E87"/>
<path d="M124.069 28.4346H125.714V38.0873H124.069V28.4346ZM124.796 28.4346H128.361V30.0418H124.799L124.796 28.4346ZM124.796 32.4909H128.016V34.0909H124.799L124.796 32.4909ZM124.796 36.4909H128.361V38.0964H124.799L124.796 36.4909Z" fill="#1A4E87"/>
<path d="M134.014 28.4346H135.551V38.0873H134.086V31.3491L134.186 31.7746L132.788 36.3818H131.966L130.568 31.9073L130.7 31.3491V38.0873H129.2V28.4346H130.778L132.376 33.68L134.014 28.4346Z" fill="#1A4E87"/>
<path d="M66.955 52.3637C66.5997 52.1986 66.3041 51.9274 66.1089 51.5873C65.9054 51.2124 65.8045 50.7902 65.8166 50.3637V45.051C65.8048 44.6233 65.9056 44.2 66.1089 43.8237C66.3031 43.4828 66.5989 43.2113 66.955 43.0473C67.3762 42.8721 67.8278 42.7819 68.284 42.7819C68.7401 42.7819 69.1918 42.8721 69.613 43.0473C69.9681 43.2119 70.2632 43.4833 70.4572 43.8237C70.6614 44.1997 70.7623 44.6232 70.7495 45.051V50.3637C70.7625 50.7903 70.6616 51.2127 70.4572 51.5873C70.2622 51.9269 69.9674 52.1979 69.613 52.3637C69.1923 52.5413 68.7405 52.6328 68.284 52.6328C67.8275 52.6328 67.3756 52.5413 66.955 52.3637ZM68.7179 50.8873C68.8372 50.8231 68.9336 50.7233 68.9939 50.6019C69.0593 50.4608 69.091 50.3064 69.0865 50.151V45.251C69.0904 45.0973 69.0587 44.9448 68.9939 44.8055C68.933 44.6844 68.8368 44.5848 68.7179 44.52C68.5836 44.4518 68.4345 44.418 68.284 44.4219C68.134 44.4175 67.9853 44.4513 67.8519 44.52C67.7349 44.5856 67.6406 44.6851 67.5813 44.8055C67.5165 44.9448 67.4848 45.0973 67.4887 45.251V50.151C67.4842 50.3064 67.5159 50.4608 67.5813 50.6019C67.64 50.7226 67.7345 50.8223 67.8519 50.8873C67.9848 50.9575 68.1337 50.9919 68.284 50.9873C68.4348 50.9915 68.5841 50.9571 68.7179 50.8873Z" fill="#FF6C6C"/>
<path d="M71.267 42.88H76.0929V44.46H71.267V42.88ZM72.8575 43.6909H74.5024V52.5346H72.8575V43.6909Z" fill="#FF6C6C"/>
<path d="M76.8752 42.88H78.5201V52.5346H76.8752V42.88ZM77.6014 46.9509H80.1523V48.5309H77.6051L77.6014 46.9509ZM79.2845 48.2582L80.6843 47.3091L82.3183 52.5346H80.5808L79.2845 48.2582ZM79.3244 47.2691L80.2195 42.88H81.9098L80.5572 48.4109L79.3244 47.2691Z" fill="#FF6C6C"/>
<path d="M82.9013 42.88H84.5462V52.5345H82.9013V42.88ZM83.6711 47.2091H85.3741C85.4956 47.212 85.6154 47.1798 85.719 47.1163C85.8201 47.0506 85.8987 46.9554 85.9442 46.8436C86.0002 46.7096 86.0274 46.5652 86.0241 46.42V45.2836C86.0278 45.1322 86.0019 44.9814 85.9478 44.84C85.9038 44.7255 85.8267 44.6267 85.7263 44.5563C85.6209 44.4902 85.4984 44.4567 85.3741 44.46H83.6711V42.88H85.4213C85.8438 42.8689 86.2631 42.9554 86.6468 43.1327C86.977 43.2908 87.2485 43.55 87.4221 43.8727C87.608 44.2349 87.6992 44.6384 87.6871 45.0454V46.6709C87.6988 47.0694 87.6068 47.4641 87.4202 47.8163C87.242 48.1336 86.9698 48.3877 86.6414 48.5436C86.259 48.7189 85.8416 48.8042 85.4213 48.7927H83.6711V47.2091Z" fill="#FF6C6C"/>
<path d="M88.9017 42.88H90.5357V52.5346H88.9017V42.88ZM89.7423 50.9546H90.9951C91.1484 50.9582 91.2996 50.9178 91.4308 50.8382C91.5556 50.7562 91.6535 50.6392 91.7122 50.5018C91.782 50.3363 91.8161 50.1578 91.8121 49.9782V49.2073C91.8168 49.0208 91.7841 48.8353 91.7159 48.6618C91.659 48.5204 91.5601 48.3998 91.4326 48.3164C91.3017 48.2342 91.1495 48.1924 90.9951 48.1964H89.7423V46.6182H91.2946C91.6989 46.6065 92.0997 46.6965 92.4602 46.88C92.779 47.0515 93.0375 47.3167 93.201 47.64C93.3791 48.013 93.4662 48.4231 93.4552 48.8364V50.3636C93.466 50.7688 93.3788 51.1705 93.201 51.5346C93.0367 51.8537 92.7771 52.1136 92.4584 52.2782C92.0971 52.4573 91.6976 52.5453 91.2946 52.5346H89.7423V50.9546ZM95.5177 52.5346H93.8655V42.88H95.5104L95.5177 52.5346Z" fill="#FF6C6C"/>
<path d="M96.4326 42.88H101.258V44.46H96.4326V42.88ZM98.0231 43.6909H99.6753V52.5346H98.0231V43.6909Z" fill="#FF6C6C"/>
<path d="M102.036 42.88H103.679V52.5346H102.036V42.88ZM102.876 50.9546H104.129C104.282 50.9582 104.434 50.9178 104.565 50.8382C104.69 50.7562 104.787 50.6392 104.846 50.5018C104.916 50.3363 104.95 50.1578 104.946 49.9782V49.2073C104.951 49.0208 104.918 48.8353 104.85 48.6618C104.793 48.5204 104.694 48.3998 104.567 48.3164C104.436 48.2342 104.284 48.1924 104.129 48.1964H102.876V46.6182H104.429C104.833 46.6063 105.234 46.6963 105.594 46.88C105.913 47.0515 106.172 47.3167 106.335 47.64C106.513 48.013 106.6 48.4231 106.589 48.8364V50.3636C106.6 50.7688 106.513 51.1705 106.335 51.5346C106.171 51.8537 105.911 52.1136 105.592 52.2782C105.231 52.4573 104.832 52.5453 104.429 52.5346H102.876V50.9546ZM108.652 52.5346H107.007V42.88H108.652V52.5346Z" fill="#FF6C6C"/>
<path d="M109.705 42.88H111.339V52.5346H109.705V42.88ZM110.431 42.88H113.984V44.4873H110.433L110.431 42.88ZM110.431 46.9364H113.655V48.5455H110.433L110.431 46.9364ZM110.431 50.9364H113.984V52.5436H110.433L110.431 50.9364Z" fill="#FF6C6C"/>
<path d="M117.136 50.9546H122.804V52.5346H117.136V50.9546ZM117.136 50.9546H118.646V54.2673H117.136V50.9546ZM117.317 50.9546H117.468C117.733 50.9546 117.932 50.7891 118.065 50.4582C118.22 49.9821 118.288 49.482 118.265 48.9818V42.88H119.768V48.5636C119.78 49.1953 119.711 49.8259 119.563 50.44C119.459 50.9046 119.22 51.3282 118.877 51.6582C118.525 51.9617 118.07 52.1185 117.606 52.0964H117.321L117.317 50.9546ZM119.453 42.88H121.644V44.46H119.449L119.453 42.88ZM120.872 42.88H122.506V52.5346H120.872V42.88ZM121.78 50.9546H123.291V54.2673H121.78V50.9546Z" fill="#FF6C6C"/>
<path d="M126.404 42.88H127.557L129.858 52.5346H128.224L126.976 46.2073L125.731 52.5346H124.097L126.404 42.88ZM125.667 49.4927H128.293V51.0327H125.667V49.4927Z" fill="#FF6C6C"/>
<path d="M130.573 42.88H132.218V52.5346H130.573V42.88ZM131.355 47.0036H134.584V48.5455H131.355V47.0036ZM133.516 42.88H135.161V52.5346H133.516V42.88Z" fill="#FF6C6C"/>
<path d="M136.35 42.88H137.984V52.5346H136.35V42.88ZM137.133 47.0036H140.344V48.5455H137.124L137.133 47.0036ZM139.293 42.88H140.938V52.5346H139.293V42.88Z" fill="#FF6C6C"/>
<path d="M142.109 42.88H143.743V52.5346H142.109V42.88ZM142.95 50.9546H144.203C144.356 50.9582 144.507 50.9178 144.638 50.8382C144.763 50.7557 144.86 50.6388 144.92 50.5018C144.99 50.3363 145.024 50.1578 145.02 49.9782V49.2073C145.024 49.0208 144.992 48.8353 144.923 48.6618C144.866 48.5207 144.767 48.4003 144.64 48.3164C144.509 48.2342 144.357 48.1924 144.203 48.1964H142.95V46.6182H144.502C144.906 46.6065 145.307 46.6965 145.668 46.88C145.986 47.051 146.244 47.3165 146.407 47.64C146.586 48.0126 146.674 48.4228 146.663 48.8364V50.3636C146.674 50.769 146.586 51.1709 146.407 51.5346C146.243 51.8536 145.984 52.1135 145.666 52.2782C145.305 52.4573 144.905 52.5453 144.502 52.5346H142.95V50.9546ZM148.725 52.5346H147.08V42.88H148.725V52.5346Z" fill="#FF6C6C"/>
<path d="M149.773 42.88H151.419V52.5346H149.776L149.773 42.88ZM150.499 42.88H154.052V44.4873H150.501L150.499 42.88ZM150.499 46.9364H153.722V48.5455H150.501L150.499 46.9364ZM150.499 50.9364H154.052V52.5436H150.501L150.499 50.9364Z" fill="#FF6C6C"/>
</svg>
