<?xml version="1.0" encoding="iso-8859-1"?>
<!-- Generator: Adobe Illustrator 21.0.2, SVG Export Plug-In . SVG Version: 6.00 Build 0)  -->
<svg xmlns="http://www.w3.org/2000/svg" xmlns:xlink="http://www.w3.org/1999/xlink" version="1.1" id="Layer_1" x="0px" y="0px" viewBox="0 0 40 40" style="enable-background:new 0 0 40 40;" xml:space="preserve">
<g>
	<g>
		<path style="fill:#4788C7;" d="M20,5.008c6.595,0,12,5.402,12,11.995C32,23.597,26.595,29,20,29S8,23.597,8,17.003    C8,10.41,13.405,5.008,20,5.008 M20,4.006c-7.206,0-13,5.793-13,12.995C7,24.206,12.794,30,20,30s13-5.794,13-12.998    C33,9.799,27.206,4.006,20,4.006L20,4.006z"/>
	</g>
	<path style="fill:#4788C7;" d="M15.812,9.146C17.542,9.438,19,10.167,19,12.135c0,1.297-0.977,2.161-0.977,2.161s0,0.721,0,1.009   c-0.144,0.431-0.433,0.287-0.576,0.721c-0.287,0.431-0.287,1.008-1.441,1.008c-1.009,0-0.796-0.29-1.371-0.29   c-0.576,0-0.727,0.697-0.727,0.697l0.005,2.984c0,0,0.12,1.267,2.084,1.267c0.672,0,0.773-0.606,1.503-0.606   c0.431,0,1.267,0,1.267,0.721c0,0.719-0.722,1.152-3.313,1.152c-2.587,0-2.928,0-3.215,0c-0.289,0-0.289,0-0.289,0.431   c0,0.432,0,2.311,0,2.311s1.174,0.978,1.75,1.267c0,0,0.691,0,1.267,0s0.775-0.259,1.495-0.69c0.721-0.289,1.44-0.576,2.305-0.576   c0.864,0,2.533-0.403,2.533-1.267c0-0.865-0.288-1.153-0.288-1.874c0-0.72,0.144-1.296-0.143-1.583   c-0.289-0.29-1.842-1.543-1.842-2.119c0-0.576,0.576-0.864,0.576-1.152s0-0.573,0.288-0.573c0.144,0,0.432-0.144,0.432-0.144   l0.144-0.577c0,0,0.289-0.142,0.432-0.288c0.144-0.144,0.288-0.144,0.288-0.144s-0.142-0.431,0.143-0.719   c0.29-0.29,0.577-0.145,0.723-0.145c0.287,0,1.007-0.143,1.007-0.143s0.29-0.431,0.432-0.575c0.433-0.289,1.585-0.432,1.874-0.721   c0.289-0.288,0.575-0.641,1.441-0.641c3.169,0,5.33,2.657,5.33,4.241c0,2.736-1.727,5.893-4.176,5.893   c-1.594,0-1.594,0.69-1.594,1.267c0,1.441,1.625,2.025,1.625,2.025s-4.884,2.808-8.343,2.808c-3.314,0-6.076-1.602-8.525-4.195   c-1.585-1.871-3.041-3.696-3.041-7.005c0-1.298-0.217-1.785-0.217-1.785s2.087-0.422,2.665-0.709   c0.576-0.289,1.847-0.397,1.847-0.972C11.8,14.168,11,13.547,11,12.25C11,10.063,12.895,8.654,15.812,9.146z"/>
</g>
<path style="fill:#4788C7;" d="M26.156,32.002c0,0,0.455-0.154,1.215-0.845c0.685-0.614,0.836-1.459,1.445-2.304  c0.684-0.922,2.203-2.303,2.203-2.303s-0.455,1.92-0.912,2.842c-0.608,1.305-1.367,1.766-1.367,1.766s0.379,0.23,0.836,0  c0.455-0.23,0.988-0.461,1.672-0.384c0.684,0.077,1.596,0.077,2.509-0.46c0.912-0.539,1.672-1.075,1.672-1.075  s-0.533,1.766-2.812,2.688c-1.445,0.616-3.116,0.616-3.648,0.307c-0.533-0.307-1.14-0.461-1.597-0.307  C26.992,32.156,26.156,32.002,26.156,32.002 M33.376,22.71c0,0-0.912,1.92-1.216,2.842c-0.303,0.922-0.379,2.38-0.532,3.072  c-0.152,0.691-0.456,0.998-0.456,0.998s2.888-0.23,4.256-1.229c2.203-1.537,2.584-4.147,2.584-4.147s-0.76,1.152-1.748,1.766  c-0.608,0.384-1.748,0.998-2.433,1.46c-0.608,0.46-0.76,1.075-1.063,0.922c-0.304-0.154,0.075-0.922,0.379-1.537  c0.228-0.538,0.38-1.305,0.228-1.843C33.376,24.4,33.376,22.71,33.376,22.71 M34.516,18.947c0,0-0.304,1.92-0.228,2.688  c0.076,0.768,0.304,1.997,0.228,2.995c-0.076,1.075-0.228,1.536-0.228,1.536s3.04-1.92,3.8-3.686C38.543,21.404,39,19.561,39,19.561  s-0.152,0.307-0.608,0.922c-0.456,0.691-1.14,0.922-1.673,1.766c-0.684,1.075-1.367,1.691-1.367,1.691s0.152-1.767,0.076-2.304  C35.352,21.021,34.516,18.947,34.516,18.947 M34.44,14.645c0,0,0.076,2.459,0.379,3.072c0.38,0.768,0.761,1.459,1.216,2.534  c0.456,1.075,0.304,0.922,0.304,0.922s0.303-0.306,0.455-0.538s1.14-1.075,1.597-2.765c0.455-1.69,0.076-3.84,0.076-3.84  s-0.228,0.691-0.304,1.23c-0.152,0.613-0.836,1.458-1.064,2.225c-0.228,0.845-0.228,1.382-0.38,1.382  c-0.151,0-0.379-0.539-0.455-1.075c0-0.461-0.684-1.306-1.216-2.15C34.743,14.953,34.44,14.645,34.44,14.645 M33.452,11.113  c0,0,0.532,0.998,0.836,1.843c0.38,0.845,1.292,1.843,1.748,2.38c0.456,0.539,0.608,0.998,0.608,0.998s0.228-0.768,0.533-1.381  c0.608-1.075,0.532-1.382,0.608-2.765c0-1.382-1.291-3.302-1.291-3.302s0.151,0.691,0.227,1.152  c0.076,0.461-0.076,2.304-0.151,2.688c-0.076,0.384,0.151,1.382-0.076,1.46c-0.228,0.077-0.912-1.152-1.445-1.766  C34.592,11.803,33.452,11.113,33.452,11.113 M31.704,7.733c0,0,0.303,1.152,1.139,1.691c0.456,0.306,1.673,1.228,2.204,1.613  c0.533,0.385,0.76,0.768,0.76,0.768s0-2.918-0.227-3.84c-0.304-0.922-1.749-2.074-1.749-2.074s0.228,0.692,0.456,0.998  c0.228,0.384,0.228,1.152,0.532,1.92c0.304,0.768,0.533,1.152,0.304,1.229c-0.152,0.077-0.684-0.307-0.988-0.691  c-0.379-0.384-1.064-0.615-1.596-0.998C32.008,8.04,31.704,7.733,31.704,7.733 M30.133,4c0,0,1.419,2.352,1.875,2.811  c0.533,0.461,1.749,1.075,1.749,1.075s-0.609-1.69-1.368-2.303C31.628,4.968,30.133,4,30.133,4 M8.068,32.923  c0,0,0.227,0.615,1.444,1.075c1.14,0.538,3.116,0.691,4.104,0.538c0.988-0.075,1.444-0.306,2.584-0.997  c1.14-0.692,1.672-0.769,2.356-0.846s0.684,0.077,0.684,0.077s-1.14,0.615-2.28,1.306c-1.064,0.768-2.027,1.464-2.027,1.464  L15.389,36c0,0,0.279-0.158,1.342-1.233c1.14-1.075,2.888-1.843,3.421-1.843c0.532,0,1.976,0.768,3.04,1.538  C24.256,35.228,24.688,36,24.688,36l0.379-0.461c0,0-1.42-1.232-2.103-1.693c-0.608-0.538-1.9-0.998-1.9-0.998s0.684-0.077,1.14,0  c0.455,0,1.444,0.539,2.355,1.152c0.911,0.613,1.748,0.768,3.876,0.538c3.496-0.306,3.648-1.459,3.648-1.459  s-1.14,0.614-2.584,0.538c-0.988,0-2.812-0.614-3.8-0.922c-0.988-0.306-1.9-0.538-2.584-0.46c-1.368,0.077-3.116,0.383-3.116,0.383  s-1.368-0.153-2.128-0.306c-0.76-0.154-2.052-0.077-3.8,0.383c-1.672,0.461-2.66,0.769-3.648,0.846  C9.436,33.615,8.068,32.923,8.068,32.923 M4.572,29.16c0,0,0.152,0.384,1.14,1.536c1.52,1.691,3.268,1.767,4.18,1.767  c0.988,0,2.051-0.384,2.66-0.461c0.608-0.077,1.52,0,1.52,0s-0.684-0.307-1.367-0.922c-0.685-0.538-0.533-1.229-1.521-2.458  c-0.988-1.306-1.976-1.997-1.976-1.997s0.38,2.075,1.14,3.301c0.456,0.845,1.14,1.152,1.064,1.229  c-0.076,0.077-0.684,0.077-0.912-0.077c-0.228-0.077-0.836-0.307-1.52-0.384c-0.685-0.075-1.673,0.23-2.812-0.46  C5.636,30.005,4.572,29.16,4.572,29.16 M1.836,24.322c0,0,0.684,1.613,1.445,2.842c0.76,1.229,2.736,1.997,3.42,2.227  s2.128,0.307,2.128,0.307s-0.38-0.461-0.609-1.306c-0.227-0.768-0.151-2.611-0.608-3.61C7.08,23.631,6.7,22.94,6.7,22.94  s0.076,0.613-0.076,0.997c-0.152,0.768,0,2.611,0.152,3.379c0.152,0.691,0.608,1.152,0.304,1.306  c-0.304,0.153-0.456-0.307-0.988-0.845c-0.456-0.539-1.9-0.997-2.812-1.767C2.519,25.167,1.836,24.322,1.836,24.322 M1,19.56  c0,0,0.076,0.768,0.228,1.382s1.064,2.611,2.052,3.533c0.988,0.922,2.355,1.843,2.355,1.843s-0.076-0.768-0.228-1.382  c-0.151-0.614,0.228-1.843,0.304-2.917c0.076-1.075-0.152-2.917-0.152-2.917s-0.912,1.765-1.064,3.224  c-0.076,0.845,0.228,1.766,0,1.766c-0.303,0.077-1.139-1.69-1.52-2.149c-0.456-0.539-0.76-0.769-1.216-1.229  C1.304,20.328,1,19.56,1,19.56 M1.38,14.185c0,0-0.152,2.688,0.151,3.917c0.533,1.997,2.053,3.225,2.053,3.225  s0.152-0.691,0.456-1.381c0.303-0.692,0.836-1.382,1.064-1.92c0.379-1.075,0.532-3.072,0.532-3.072s-0.379,0.538-0.684,0.998  c-0.304,0.46-0.684,0.998-1.064,1.69c-0.304,0.768-0.38,1.382-0.684,1.46c-0.456,0.075-0.076-0.693-0.456-1.615  c-0.379-0.922-0.988-1.92-1.064-2.38C1.608,14.645,1.38,14.185,1.38,14.185 M3.431,8.962c0,0-1.063,1.46-1.215,2.765  c-0.152,1.306-0.076,2.381,0.455,3.302c0.38,0.614,0.456,1.459,0.456,1.459s0.152-0.46,0.608-0.922  c0.456-0.46,1.216-1.152,1.748-2.074c0.533-0.922,0.988-2.149,0.988-2.149s-0.835,0.46-1.367,0.922  c-1.216,1.076-1.824,2.149-1.824,2.149s-0.304-0.306-0.228-0.768c0.228-0.383,0.304-1.075,0.228-1.613  c-0.076-0.461-0.228-0.768-0.076-1.382C3.28,10.038,3.431,8.962,3.431,8.962 M6.319,5.967c0,0-1.444,0.845-1.824,1.92  c-0.303,0.845-0.152,1.69-0.303,2.535c-0.152,0.845,0.076,1.459,0.076,1.459s0.075-0.23,0.608-0.768  c0.532-0.539,1.292-0.845,1.824-1.229c1.216-0.845,1.748-2.15,1.748-2.15S7.764,8.348,7.384,8.579  C7.081,8.731,6.396,9.116,5.94,9.424c-0.38,0.229-0.609,0.998-0.609,0.998s-0.455-0.384-0.303-0.846  c0.152-0.46,0.379-0.845,0.455-1.305c0.076-0.461,0.228-1.152,0.456-1.46C6.092,6.505,6.319,5.967,6.319,5.967 M7.384,5.89  C6.396,6.888,6.169,8.117,6.169,8.117S7.232,7.58,8.144,6.658C8.905,5.889,9.867,4,9.867,4S7.916,5.353,7.384,5.89"/>
</svg>
