<?xml version="1.0" encoding="utf-8"?>
<!-- Generator: Adobe Illustrator 24.0.1, SVG Export Plug-In . SVG Version: 6.00 Build 0)  -->
<svg version="1.1" id="Capa_1" xmlns="http://www.w3.org/2000/svg" xmlns:xlink="http://www.w3.org/1999/xlink" x="0px" y="0px"
	 viewBox="0 0 22 22" style="enable-background:new 0 0 22 22;" xml:space="preserve">
<style type="text/css">
	.st0{fill:#2D7ED6;}
</style>
<g>
	<g>
		<path class="st0" d="M22,15c0-0.8-0.5-1.5-1.3-1.8V6.5L22,6L11,1.6L0,6l11,4.4l8.4-3.4v6.2c-0.7,0.3-1.3,1-1.3,1.8
			c0,0.8,0.5,1.4,1.1,1.7L18.2,20l1.2,0.4l0.7-2l0.7,2L22,20l-1.1-3.2C21.5,16.5,22,15.8,22,15z"/>
	</g>
</g>
<g>
	<g>
		<path class="st0" d="M11,11.8L5.2,9.5v1.7c0,1.8,2.5,3.2,5.8,3.2s5.8-1.4,5.8-3.2V9.5L11,11.8z"/>
	</g>
</g>
</svg>
