<svg width="21" height="28" viewBox="0 0 21 28" fill="none" xmlns="http://www.w3.org/2000/svg">
<path d="M10.08 0C4.5072 0 0 4.382 0 9.8C0 17 10.08 28 10.08 28C10.08 28 20.16 17 20.16 9.8C20.16 4.382 15.6528 0 10.08 0Z" fill="#36A3D3"/>
<path fill-rule="evenodd" clip-rule="evenodd" d="M4.47696 5.74001L10.2226 2.79999L15.9682 5.74001V6.91602H4.47696V5.74001ZM10.2232 4.12897L13.3742 5.74011H7.07215L10.2232 4.12897ZM5.98879 8.09218H7.1984V12.2082H5.98879V8.09218ZM9.62059 8.09218H10.8302V12.2082H9.62059V8.09218ZM15.9669 13.384H4.47559V14.56H15.9669V13.384ZM13.2458 8.09218H14.4554V12.2082H13.2458V8.09218Z" fill="white"/>
</svg>
