<svg width="60" height="60" viewBox="0 0 60 60" fill="none" xmlns="http://www.w3.org/2000/svg">
<path d="M59.6727 9.36552L53.2619 46.3201C53.2619 46.3201 11.3692 38.191 0 60.0001C11.2276 35.4983 50.7019 40.2292 50.7019 40.2292L54.9994 11.411H51.1122V8.90916C55.4097 8.27643 59.6727 9.36552 59.6727 9.36552Z" fill="#FF6C6C"/>
<path d="M23.4937 21.8818L23.2631 33.7472C21.5819 34.1854 19.8716 34.6818 18.1559 35.2491L18.4246 21.8054L23.4937 21.8818Z" fill="#FF6C6C"/>
<path d="M32.6805 14.5054L32.341 31.8782C30.7233 32.1327 29.013 32.44 27.2573 32.8127L27.6205 14.4291L32.6805 14.5054Z" fill="#FF6C6C"/>
<path d="M41.8856 6.3818L41.3954 30.8509C39.972 30.9472 38.2508 31.1018 36.3118 31.3309L36.8056 6.30725L41.8856 6.3818Z" fill="#FF6C6C"/>
<path d="M49.7869 0.0600586L47.6336 37.6782C47.6336 37.6782 8.78923 34.6819 0 58.0546C8.35167 32.0364 44.4055 32.0364 44.4055 32.0364L45.4821 3.81824C45.4821 3.81824 11.8412 4.76188 1.51238 23.2728C1.45612 23.3997 1.41704 23.5337 1.39618 23.671C1.42672 23.3144 1.49987 22.9628 1.61405 22.6237C12.3804 0.0600572 49.7869 0.0600586 49.7869 0.0600586Z" fill="#1A4E87"/>
</svg>
